<mxfile host="app.diagrams.net" modified="2024-01-08T03:20:04.327Z" agent="Mozilla/5.0 (Windows NT 10.0; Win64; x64) AppleWebKit/537.36 (KHTML, like Gecko) Chrome/120.0.0.0 Safari/537.36" version="22.1.17" etag="50bBD43Ol5ZS9nUzv8Jb" type="github">
  <diagram name="第 1 页" id="eiuUPFWlPnI4fUJ_jFeD">
    <mxGraphModel>
      <root>
        <mxCell id="0" />
        <mxCell id="1" parent="0" />
      </root>
    </mxGraphModel>
  </diagram>
</mxfile>
